<svg id="Layer_1" data-name="Layer 1" xmlns="http://www.w3.org/2000/svg" viewBox="0 0 1137.68 859.71"><defs><style>.cls-1{fill:#6c63ff;opacity:0.1;isolation:isolate;}.cls-2{fill:#070707;}.cls-3{fill:#161515;}.cls-4{fill:#335ba1;}.cls-5{fill:#0b1729;}.cls-6{fill:#1b365b;}.cls-7{fill:#0c1b2d;}.cls-8{fill:#9d7267;}.cls-9{fill:#ae8471;}.cls-10{fill:#062821;}.cls-11{fill:#0e5b4c;}.cls-12{fill:#0a1621;}.cls-13{fill:#967263;}.cls-14{fill:#09111e;}.cls-15{fill:#132539;}.cls-16{fill:#191a1d;}.cls-17{fill:#67647e;}.cls-18{fill:#0c0c0c;}.cls-19{fill:#111;}.cls-20{fill:#ddd7dd;}.cls-21{fill:#132338;}.cls-22{fill:#0e6991;}</style></defs><title>about-us</title><ellipse class="cls-1" cx="586.13" cy="727.3" rx="525.48" ry="118.65"/><ellipse class="cls-1" cx="535.2" cy="301.78" rx="472.49" ry="20.64"/><ellipse class="cls-1" cx="502.3" cy="228.01" rx="472.49" ry="10.56"/><ellipse class="cls-1" cx="629.8" cy="380.14" rx="472.49" ry="26.3"/><ellipse class="cls-1" cx="606.85" cy="70.35" rx="389.66" ry="58.06"/><path class="cls-2" d="M614.47,665.57h0c1.56-3.93,2-18.45,2-18.45,2.45,9.54,11.77-1,11.77-1,.81-7.54,2.7-9.22,4.4-9s2.93,2.07,3.69,4.83c2,6.92,9.07,19.83,9.07,19.83,1.52,4.62,7.21,9.16,10.23,11.3a6.56,6.56,0,0,1,1.17,1.09,13.51,13.51,0,0,1,2.57,5.76,12,12,0,0,1,.25,4.8c-.79,3.93-16.85,6.19-20.9,2.13-3.18-3.21-15.81-7.66-21.06-9.42-2-.61-3.51-3.87-3.72-7.92A9.56,9.56,0,0,1,614.47,665.57Z"/><path class="cls-2" d="M678.2,674.7c.94,3.64,3.65,6.25,6.59,6.35,7.81.38,26.67,1.51,31.74,3.68,6.45,2.76,29.19-3,29.72-6.77a7.3,7.3,0,0,0-1.11-4.31,11.27,11.27,0,0,0-4.59-4.64,9.32,9.32,0,0,0-1.85-.72c-4.66-1.25-13.55-4.06-16.46-7.91,0,0-12.16-10.1-16.1-15.93a7,7,0,0,0-6.07-3.54c-2.46.2-4.93,2.17-4.93,9.21,0,0-11.77,11.72-16.77,3.61,0,0,1.6,13.31,0,17.24h0A6,6,0,0,0,678.2,674.7Z"/><path class="cls-3" d="M589.64,204.22l-5.19-25.94s1.87-11.41,2.6-12.45,3.26-6.43,3.26-6.43L599.6,153l5.81-3.32s6.64-2.69,7.26-2.69h11.42s1.65-6.85,2.59-6.85,6.33,3.53,6.33,3.53,3.11.2,3.73.83a43.77,43.77,0,0,0,4.36,2.69l-1.87,3.74,4.15-1.66-2.9,5,5.43-1.66-5.43,6,2.49.62s3,4.56,2.94,5.6-.59,3.94,0,5.19a5.87,5.87,0,0,1,0,3.32l1.83,3.94v5.4s-6.25,2.69-15.38-2.91-19.61,1.45-19.61,1.45L607.46,225Z"/><path class="cls-4" d="M605,242.34l-40.26,25-38.6,80.1L532,388.07H544.4L559.34,384l6.23-2.25-4.84-16L556,360.4l6.64-22.69,6.37-13,6.92-3.32s3.87-5.53,1.66,4.7-.28,16.05.27,17.71,6.37,13,6.37,13,2.21,7.2,2.21,8.58.83,13.56,1.11,14.66a48.38,48.38,0,0,1,.27,6.92c0,2.49-3.59,8.3-3.59,10.51a19.34,19.34,0,0,0,1.1,5.26l6.34,9.62s11.09-.19,11.65,2,13.83-2.8,17.43-1.41,6.08,1.11,8.3,1.38,12.17-1.93,12.17-1.93l23.79.27s6.37-4.7,12.45-5.26a90.62,90.62,0,0,0,14.39-3v-8.3L689.94,387a30.68,30.68,0,0,1-.56-6.64,19.8,19.8,0,0,1,1.11-4.43c.28-.83-.55-33.47-.55-34.86s.27-8.3,0-13.83.55-4.15.55-4.15l8.3,5.31,4.43,13.5s-4.15,13.56-4.15,14.39-6.92,24.62-6.92,24.62l3.87,9.41,8.86-1.38,8.85,1.66,12.73-41.23v-8.85s-1.66-14.66-3.6-17.43-11.62-36-11.62-37.08-12.17-21-12.73-22.13-.55-4.43-4.42-6.92-11.62-7.19-15.22-8.57a79.56,79.56,0,0,0-8-2.49l-11.34-3.52-3.6-3.12-7.47-12.73L605.55,232l-2.49,7.2Z"/><path class="cls-5" d="M612.47,651.6l14.21,4.45v-5l11.52-5-5.81-21.12-5.71-32.43V562.68l4.05-32,7.47-22.78,3.32-22,16.6,35.33s7.47,23.37,8.3,26.84,7.47,31.5,7.47,34.09v30.35s-1.66,16.17,0,19.52,0,14,0,14l4.15,10s.83,7.47,4.15,7.12,20.75-3.68,20.75-3.68l5-18.06-6.64-11.64,2.49-22.38,4.15-32.51V554.11l-4.15-17.68v-23l.83-17.76-1.66-12.33-4.15-14.09-3.32-10.44-5-18.26V422.1l-2.77-16.58-84.38,8.86-18-11.65v89.75l4.71,20.91,5,23,.83,42.24.83,12.19L602.51,610l3.32,8.12Z"/><polygon class="cls-6" points="598.36 251.11 589.64 268.13 602.92 265.22 608.73 263.15 615.79 272.28 622.84 275.18 634.05 278.5 619.52 268.13 611.84 258.17 606.24 246.13 605 242.34 598.36 251.11"/><polygon class="cls-6" points="641.1 278.5 651.89 271.45 651.89 265.64 654.38 254.85 660.61 250.28 668.08 257.34 655.9 239.22 651.06 237 646.64 257.75 643.18 266.88 638.2 274.77 641.1 278.5"/><polygon class="cls-6" points="634.05 283.48 646.64 404.67 649.43 409.54 657.77 408.66 640.69 283.48 638.2 276.84 634.05 278.5 634.05 283.48"/><circle class="cls-7" cx="639.1" cy="296.28" r="0.9"/><circle class="cls-7" cx="643.04" cy="327.34" r="0.9"/><circle class="cls-7" cx="646.81" cy="356.25" r="0.9"/><circle class="cls-7" cx="650.68" cy="393.05" r="0.9"/><polygon class="cls-8" points="562.66 382.75 583.41 414.38 594.21 414.38 603.34 425.42 605.83 432.89 597.94 429.57 595.45 423.76 592.96 421.68 592.55 426.66 600.85 434.55 605.83 437.87 600.43 437.87 593.79 437.87 597.94 444.92 593.7 443.75 590.47 442.85 592.96 450.32 602.09 454.47 599.6 456.96 589.64 454.88 581.75 444.92 578.02 440.51 576.77 428.32 567.64 421.68 548.55 393.05 544.4 388.07 562.66 382.75"/><path class="cls-8" d="M673.47,424.59s2.08-1.25,3.32,0,5.81-4.73,5.81-4.73l5-2.74v3.82l-7.05,7h-3.32l10.37-2.08-11.2,5,2.49,3.74,15.35-2.08L683.85,437h10.37v3.81l5-9.62s1.25-6.64,0-7.89.56-5,.56-5l14-27.8-12.43-1.1-9.43,14.93-7.19,5.15Z"/><path class="cls-9" d="M636.54,276.84l8.09-18L649,246.73V234.51l-1.87-4.35L649,221l2.9-14.94-1.24-11.82-2.91-7.06-1.83-9.13s-5.36-7.68-5.91-8.51-8.24-5.81-8.24-5.81l-5.46,3.53-7.19,3.53L611.84,176l-5.18,5.81-3.12,8.92-1.24,13.69,2.9,8.3.83,9.76-1.26-2.39-.6-1.14-3.95-11.41-2.28-4.15L594,201.31l-3.32.21s-.83,7.47,0,8.09,5.19,5.81,5.19,5.81.62,2.7,1.24,3.11a46.72,46.72,0,0,0,4.36,1.77l2.49,1.14,1.24,3.32.63,5.4,1.45,6.84,2.9,5.34v4.42l-3.55.2,7.67,14.39,19.75,15.49Z"/><path class="cls-2" d="M874.38,793.87a7.9,7.9,0,0,1-5.47,7.74c-8.54,2.52-29.07,8.81-34,12.24-6.35,4.36-33.14,5.3-34.8,1.94a6.12,6.12,0,0,1,0-4.32,11.13,11.13,0,0,1,5.59-6.78c4.81-2.46,13.84-7.54,16-11.93,0,0,10.57-12.78,13.28-19.3a7.9,7.9,0,0,1,5.7-5c2.79-.5,6.07.65,8.07,7.21,0,0,16.35,7.64,19.57-1.29,0,0,2,12.83,4.93,16h0A5,5,0,0,1,874.38,793.87Z"/><polygon class="cls-10" points="766.95 397.35 803.43 286.36 816.04 268.23 853.57 261.04 793.5 397.35 766.95 397.35"/><path class="cls-2" d="M800.65,735.32a7.68,7.68,0,0,1-6.25,7c-8.75,1.43-29.8,5.08-35.12,7.85-6.76,3.53-33.47,1.08-34.76-2.46a6.06,6.06,0,0,1,.46-4.29,10.94,10.94,0,0,1,4.31-5.09,11.37,11.37,0,0,1,2-.94c5-1.84,14.54-5.74,17.1-9.84,0,0,11.85-11.36,15.23-17.49a7.71,7.71,0,0,1,6.19-4.23c2.82-.14,6,1.42,7.25,8.19,0,0,15.44,9.65,19.58,1.19,0,0,.64,13,3.21,16.56h0A5.05,5.05,0,0,1,800.65,735.32Z"/><polyline class="cls-11" points="826.75 294.11 822.84 278.82 863.76 240.22"/><polygon class="cls-11" points="822.84 278.82 815.98 284.45 817.21 298.39 809.38 309.39 804.24 287.19 815.5 271.05 802.77 287.19 805.95 301.08 806.69 311.26 772.68 393.58 778.79 393.58 812.56 313.14 817.94 304.29 824.3 296.79 822.84 282.31 822.84 278.82"/><path class="cls-12" d="M770,393.58l.51-1.62,15.63-49.33,14.44-33.24,4.59-11.78L802,290.35l-12.72,25.74-15.66,58-6.37,2.28-3.91,17.16s-2.66,5.41,5.78,2.95"/><path class="cls-13" d="M796.66,196.51l1.83-16.89s5-10.37,18.23-5.36c7.44,2.82,15.9-6.16,16.88-6.16s8.32-1.08,9.3,0,5.87,3.75,5.87,3.75l-5.38,7.51,3.42,6.7,7.83,10.45,5.26,11.2,4.22-6,5.14-.61L872,211.53l-3.67,12.67L865.9,230l-3.8,1.61,1.47,4.62.19,4L851,254.6l-22.67,19.29L816,284.45l.07-16.22s-14-13.55-14.52-21c-.29-4-6-13.58-5.67-15.59s1.1-14.08,1.1-14.08l2.57-7.84-2.94-6.64Z"/><path class="cls-3" d="M795.83,195l.95-8.45L793.66,182l1.56-6-8.9-9.86,5.23-5s6.14-5,6.33-5.83,4.59-2.42,4.59-2.42v-4.22l5.68-1.21s1.29-4.22,2.21-4.22,4-.6,4.77,0,2-3.22,2-3.22,5-.4,5.68,0,4.41-1.81,5-1.81,5.32,4.23,5.32,4.23l2.2-4.23c1.29,1.41,2.39,4.83,2.39,4.83l3.12-2.41s4.95-2.82,5.69-2.42,1.65,4.63,1.65,4.63,2.75-2.82,2.75-2.21v6.23s3.3,3.22,3.3,4,3.67.2,3.67,1.41,8,2,8,2l-1,5.43s4.58,6.6,5.32,6.92-3.49,8.36-3.49,8.36l7.71,3.42s-7,7.24-6.42,7.64,2.57.81,2.57,1.81-.56,4.83-.56,4.83v4.42l-8,7.69-2.08,3-16.51-28.35,5.38-7.51-45.39,4.09Z"/><path class="cls-14" d="M799.81,731.76C811.58,719.26,814,509.91,814,509.91L795.92,551.7l-14.77-53.33-18.64,10.85,4.78,133.42,12.24,29-6.85,24.13-5.39,11.51Z"/><path class="cls-12" d="M782.74,498.37s-19.5,14.87-20.23,10.85,4.44-44,4.44-44L761.42,440h15.06Z"/><path class="cls-14" d="M832.62,782.43l-4.4-26.93,2.2-9.22-2.2-25.43-11-30-6.31-92.48-5.13-43.57-15.72-6V488.48h94l-10.27,77.59-10.28,50-4.4,17,12.48,15.09-3.67,8-.74,22.47,2.2,22.69L866.39,726s-8.81,15-4.41,16,6.61,9.77,6.61,9.77l-.73,10.48v15.28Z"/><path class="cls-15" d="M795.92,551.7s-25.69-77.43-20.55-108,23.49-93.3,37.44-123.06,51.38-80.43,51.38-80.43l11,10.45s34.49,20.11,38.16,37.81-8.8,80.43-8.8,80.43-26.43,80.43-15.42,123.86l2.94,46.53Z"/><path class="cls-12" d="M774.8,449.06,837,313.41v8.85l7.34-28.15L869.27,245l-5.08-4.82S801.06,300.81,774.8,449.06Z"/><path class="cls-12" d="M914.59,345.85,861.74,440H755.31s-17.62-31.37-3.67-43.44h84.41l16.88-70s31.56-37,35.23-37.81S925.6,274.27,914.59,345.85Z"/><path class="cls-9" d="M751.64,393.3l-9.55-3.48-3.91-2.41-6.61-3.76-5.38-4-5.14-1.07s-4.89,4.56-1.71,6.17,7.34,7,7.34,7l-4.16,1.6-5.87-8.57-4.16-4.56-3.92-12.87h-2.69l3.18,18,8.32,11.26,5.63,8.05,5.75,4,8.69,4.29,7.09,3.75h1.72S748.46,392.23,751.64,393.3Z"/><path class="cls-9" d="M717.38,365.69h3.67v9.12l-2.72,7.76h-3.65S712.24,371.59,717.38,365.69Z"/><path class="cls-9" d="M724.48,376.68s-2.69-4,0-4,13.21,5.9,13.21,5.9h3.18l-14.43-12.87s-2-2.36,2.32-2.12,17.5,6.41,17.5,6.41L757,371.06l1-8.86s-1-15.28,2.69-15,3.42,9.12,3.42,9.12v10.18l3.17,12.07-1,10.72-2.94,4.29s-12.21.27-18.09-3.75S724.23,382,724.48,376.68Z"/><path class="cls-4" d="M473.87,72.6c-.33-6.22-.73-13.71-.66-19.28H473c-1.53,5.24-3.38,10.8-5.63,17L459.49,92h-4.37l-7.23-21.27c-2.12-6.29-3.91-12.06-5.17-17.36h-.13c-.13,5.57-.46,13.06-.86,19.75l-1.19,19.15H435l3.11-44.66h7.36l7.62,21.6c1.85,5.5,3.38,10.4,4.5,15h.2c1.13-4.5,2.72-9.41,4.71-15l7.95-21.6h7.36l2.78,44.66H475Z"/><path class="cls-4" d="M496.6,51.13a3.62,3.62,0,0,1-7.23,0A3.56,3.56,0,0,1,493,47.49,3.46,3.46,0,0,1,496.6,51.13Zm-6.5,41.09V60.15h5.83V92.22Z"/><path class="cls-4" d="M528.47,91a21.55,21.55,0,0,1-9.21,1.85c-9.68,0-16-6.56-16-16.37s6.76-17,17.23-17a19.57,19.57,0,0,1,8.08,1.66l-1.32,4.51a13.46,13.46,0,0,0-6.76-1.53c-7.36,0-11.33,5.44-11.33,12.13,0,7.42,4.77,12,11.13,12a16.59,16.59,0,0,0,7.16-1.59Z"/><path class="cls-4" d="M535.3,70.15c0-3.77-.07-7-.27-10h5.1l.2,6.29h.27c1.46-4.31,5-7,8.88-7a6,6,0,0,1,1.65.2v5.5a8.27,8.27,0,0,0-2-.2c-4.11,0-7,3.11-7.82,7.49a15.53,15.53,0,0,0-.27,2.71v17.1H535.3Z"/><path class="cls-4" d="M585.33,75.92c0,11.86-8.22,17-16,17C560.68,93,554,86.59,554,76.45c0-10.74,7-17,15.91-17C579.1,59.42,585.33,66.11,585.33,75.92Zm-25.45.33c0,7,4,12.33,9.74,12.33s9.74-5.24,9.74-12.46c0-5.44-2.71-12.33-9.61-12.33S559.88,70.15,559.88,76.25Z"/><path class="cls-4" d="M612.7,52.46H599.11v-4.9h33.07v4.9H618.53V92.22H612.7Z"/><path class="cls-4" d="M635.49,77.24c.13,7.89,5.17,11.14,11,11.14a21,21,0,0,0,8.88-1.66l1,4.17a26,26,0,0,1-10.67,2c-9.88,0-15.78-6.49-15.78-16.17s5.7-17.29,15.05-17.29c10.47,0,13.25,9.21,13.25,15.11a21,21,0,0,1-.2,2.71Zm17.1-4.17c.06-3.71-1.53-9.48-8.09-9.48-5.89,0-8.48,5.44-8.94,9.48Z"/><path class="cls-4" d="M683.2,92.22l-.46-4h-.2A12,12,0,0,1,672.73,93c-6.49,0-9.81-4.57-9.81-9.21,0-7.76,6.9-12,19.29-11.93v-.66c0-2.65-.73-7.43-7.29-7.43a16,16,0,0,0-8.35,2.39l-1.33-3.84a19.86,19.86,0,0,1,10.54-2.85c9.81,0,12.19,6.69,12.19,13.12v12a46,46,0,0,0,.53,7.69Zm-.86-16.37c-6.36-.13-13.58,1-13.58,7.23a5.16,5.16,0,0,0,5.5,5.56A8,8,0,0,0,682,83.27a6,6,0,0,0,.33-1.85Z"/><path class="cls-4" d="M697.38,68.83c0-3.32-.06-6-.26-8.68h5.1l.27,5.17h.19a11.07,11.07,0,0,1,10.08-5.9,9.49,9.49,0,0,1,9.08,6.43H722a13.08,13.08,0,0,1,3.58-4.18,10.92,10.92,0,0,1,7.09-2.25c4.24,0,10.53,2.78,10.53,13.91V92.22h-5.7V74.06c0-6.16-2.25-9.87-7-9.87a7.56,7.56,0,0,0-6.9,5.3,9.82,9.82,0,0,0-.46,2.92V92.22h-5.7V73c0-5.1-2.25-8.81-6.69-8.81-3.65,0-6.3,2.91-7.22,5.83a7.86,7.86,0,0,0-.47,2.85V92.22h-5.7Z"/><polygon class="cls-16" points="380.41 461.59 385.58 438.8 412.42 440.7 398.13 469.88 380.41 461.59"/><path class="cls-3" d="M424.44,234.2S411.36,223,408.52,210.43l-.88-3.72s-2.66-2.83-1.42-2.3,3.37,1.24,3.37,1.24l-2.31-2,3.37-4.55-3.37-11s-5.49-12.4-2.3-25.86,4.32-17.89,6.85-19.13,5.55-3.54,7.85-3.54a24.42,24.42,0,0,0,6.2-1.42l7.27-1.95s.7-4.43,3-5.31a54.75,54.75,0,0,1,7.26-1.77l1.94-2.31-1.59-2.65,6,9-1.24-7.44,5,11.34s-1.42-8.33-1.42-7.27,4.43,7.8,4.43,7.8v-4.08l2.65,4.79,12.23-.71-2.84,3,5.67,2.48-2.83,2.3,2.83.71s7.26,14.27-2.66,22.19l-13.4,12.52-5.31-6.42s3.13,4.41,3.66,4.41-10.35-9.48-11.3-9.14,11.3,50.78,11.3,51.49-26.24-4.78-26.24-4.78l-18.4-20.67s28.51,24.92,28.51,26.51S424.44,234.2,424.44,234.2Z"/><path class="cls-9" d="M416.6,251.74l1.13-20.23,3.72-2.83V220s-.88-7.79,0-8.33a13.34,13.34,0,0,0,2.31-2.3v-2.66S413.13,199.27,413,192.9s3.72-8.51,5.4-8.51,5.41,4.26,5.41,4.26l5,7.08s5.13,4.61,5.67,4.78a8.07,8.07,0,0,0,2.12,0s-.53-5.31-.71-6.37-.35-18.78-.35-18.78l8.32-4.43s3-5,3-7.26-2.3-7.09-2.3-7.09,5.85-4.6,10.28-2.65a47.89,47.89,0,0,1,9,5.66l2.66-1.06,9.39,17.89v6.73l-1.24,1.95,1.24,1.07-1.95,3.36,3.89,5.85v13.11l-1.41,8.5s.53,11-.89,11.51-16.47,5-16.47,5l.8,3.29,6.61,14.46S437.15,273.17,416.6,251.74Z"/><path class="cls-17" d="M419.35,244.58s14.58,11.32,22,13.8c13.81,4.64,27-13.8,27-13.8l.93,27.62L480,317.37,490.8,437.11l-91.13,3.59L382.19,409,413,323Z"/><path class="cls-2" d="M459.41,691.72c.69,4.13,3.45,7.29,6.7,7.68,8.65,1.17,29.49,4.23,34.91,7.13,6.9,3.68,32.72-.56,33.67-4.69a8.07,8.07,0,0,0-.82-4.89,12.73,12.73,0,0,0-4.65-5.6,10.15,10.15,0,0,0-2-1c-5.07-1.84-14.67-5.8-17.53-10.36,0,0-12.55-12.39-16.37-19.24-1.47-2.74-3.87-4.43-6.4-4.51-2.76,0-5.69,1.94-6.36,9.76,0,0-14.2,11.89-19,2.41,0,0,.5,14.94-1.69,19.15h0A6.56,6.56,0,0,0,459.41,691.72Z"/><path class="cls-2" d="M385.28,689.7c.71,6,2.88,10.66,5.27,11.38,6.37,2.1,21.74,7.5,25.84,11.94,5.22,5.63,23.87.77,24.37-5.12a27.16,27.16,0,0,0-4.51-15.36,8.85,8.85,0,0,0-1.5-1.5c-3.79-2.88-11-9-13.3-15.75,0,0-9.76-18.43-12.89-28.48-1.2-4-3-6.56-4.89-6.8-2-.15-4.06,2.52-4.17,13.75,0,0-9.79,16.42-13.74,2.55,0,0,1.09,21.52-.3,27.48h0A17.45,17.45,0,0,0,385.28,689.7Z"/><path class="cls-18" d="M376.28,468s-20.19-5.85-20.19-12.76-7.44-11.16-7.44-11.16l-4.78-4.78,11.69-22.85,1.06-8.26-12.75-20.44-3.72-10.63V364.29L338,358.52s3.72-13.81,3.72-15.41V321.85L348.12,308s4.25-24.45,5.31-26.57,3.72-12.76,3.72-12.76l6.38-7.44,10.1-7.44,14.88-7.44,12.75-4.25,9-3.72,7.44-6.91v9l8.51,21.25,6.91,5.32-3.72,35.07-12.76,56.86-21.26,58.46V426Z"/><polygon class="cls-19" points="399.67 435.58 378.41 451.52 375.22 456.3 347.06 387.22 347.06 382.97 343.33 376.06 343.33 361.71 343.33 346.83 346.52 330.36 355.56 290.5 359.48 266 363.53 261.27 371.5 276.68 377.88 314.42 374.16 320.26 376.28 330.89 377.88 343.11 371.5 349.75 375.75 358.79 373.63 370.75 378.41 388.28 385.58 404.76 388.51 415.38 392.76 424.95 399.67 435.58"/><path class="cls-9" d="M380.41,450s1.19,9.21,3.58,9.21,10.1,5.31,15.68,0,10.09-14.09,10.09-14.09l-3.19-4.78-8.95-3.25Z"/><path class="cls-18" d="M490.8,440.36,481,366.23,466.36,311l-4.78-24.71-5.05-15.68,3.72-5.84L461,253,460,238.16l-.26-2.13s10.62,8.5,19.39,11.16,20.2,7.44,23.65,10.1a52.69,52.69,0,0,1,4.78,4s1,106.05,2.1,111.1S490.8,440.36,490.8,440.36Z"/><path class="cls-18" d="M508.47,449.35s11,6.95,11-15.1l-2.92-7.44S517.31,440.36,508.47,449.35Z"/><path class="cls-9" d="M490.8,440.36s4.45,10,17.67,9c1.29.58,1.17-2.75,1.17-2.75S497.71,437.17,490.8,440.36Z"/><path class="cls-16" d="M406,669.4h-6.37l-11.16-2.65-5.85,2.65-5.85-14.88V609.89s-2.65-13.29-2.65-17.54,2.65-24.45,2.65-24.45l6.38-13.28s-.53-8.37-.53-10.83-2.25-25.39-2.25-25.39l5.17-9.48v-9l-5.17-9.56V461.59l3.58-2.36s14.08,12.1,28.43-18.53c73.87-3.53,78.38-3.59,78.38-3.59s-3.18,10.07,17.67,12.24c-2.52,12.8-3.58,25-3.58,25l-1.07,8.51.54,9.56s1.59,2.13-1.07,5.85-3.48,11.16-3.07,18.07-3.84,12.75-3.84,12.75l1.07,11.16s4.48,10,2.77,13-3.3,14.64-3.3,14.64l3.3,7.25v6.57L498,588.63l-1.6,9.56-1.06,11.16-2.12,5.49V637l1.06,4.25,2.12,5.31-3.18,4.79-2.4,3.18v12.23l-13.55,9L461.31,671l-4.78-11.16,4.25-5.32s1.59-5.31,1.59-8-3.19-14.88-3.19-14.88l-2.65-9V572.15c0-1.59-2.13-3.72-2.13-5.31s-5-11-3.56-14.52-2.28-20.55-2.28-22.15-4.26-16.76-4.26-16.76l-3-10.87v-3.19L430,525.09l-9.57,31.36-3.72,23.14L415.61,587l-1.6,6.91.54,13.82s1.59,15.41,1.59,17,0,10.63-1.06,13.29-5.32,11.69-5.32,11.69v10.63Z"/><path class="cls-19" d="M490.8,440.36s9,.27,13.29,2.92,7.71,4.52,7.71,4.52l1.86,1.55,2.92-17.23V419.9l3.72-7.17s-.8-6.64,0-8.77,0-21.79,0-21.79l2.39-4.52V358.79l3.45-5.05s-4.51-30.82-4.51-31.62-1.07-11.69-1.07-11.69l-4.25-9.83s-.26-7.44-1.06-9-2.13-8.5-2.13-8.5l-1.06-8.24-4.52-13.55-.73,23.24s-.22,8.85.18,11-1.31,22.65-1.31,22.65.27,13.28,0,15.67-2.92,6.91-2.92,8,1.33,9.3.8,10.63-2.39,5.58-2.39,6.38-2.39,6.38-2.66,9.56-1.06,6.91-1.06,8.24-.8,6.91-.27,9.83.8,13.55,1.33,15.15-4,20.56-4,20.56a72.67,72.67,0,0,0-1.59,7.6C492.93,431.06,490.8,440.36,490.8,440.36Z"/><ellipse class="cls-20" cx="448.31" cy="342.51" rx="1.47" ry="3.37"/><ellipse class="cls-20" cx="451.25" cy="336.59" rx="1.47" ry="3.37"/><ellipse class="cls-20" cx="446.07" cy="335.08" rx="1.47" ry="3.37"/><ellipse class="cls-20" cx="444.25" cy="344.04" rx="1.47" ry="3.37"/><ellipse class="cls-20" cx="447.54" cy="351.09" rx="1.47" ry="3.37"/><ellipse class="cls-20" cx="452.72" cy="345.88" rx="1.47" ry="3.37"/><ellipse class="cls-20" cx="459.02" cy="328.71" rx="1.47" ry="3.37"/><ellipse class="cls-20" cx="461.96" cy="322.8" rx="1.47" ry="3.37"/><ellipse class="cls-20" cx="456.78" cy="321.28" rx="1.47" ry="3.37"/><ellipse class="cls-20" cx="454.96" cy="330.24" rx="1.47" ry="3.37"/><ellipse class="cls-20" cx="458.25" cy="337.3" rx="1.47" ry="3.37"/><ellipse class="cls-20" cx="463.44" cy="332.08" rx="1.47" ry="3.37"/><ellipse class="cls-20" cx="448.83" cy="316" rx="1.47" ry="3.37"/><ellipse class="cls-20" cx="451.78" cy="310.09" rx="1.47" ry="3.37"/><ellipse class="cls-20" cx="446.59" cy="308.58" rx="1.47" ry="3.37"/><ellipse class="cls-20" cx="444.77" cy="317.53" rx="1.47" ry="3.37"/><ellipse class="cls-20" cx="448.06" cy="324.59" rx="1.47" ry="3.37"/><ellipse class="cls-20" cx="453.25" cy="319.38" rx="1.47" ry="3.37"/><ellipse class="cls-20" cx="437.82" cy="331.51" rx="1.47" ry="3.37"/><ellipse class="cls-20" cx="440.76" cy="325.59" rx="1.47" ry="3.37"/><ellipse class="cls-20" cx="435.58" cy="324.08" rx="1.47" ry="3.37"/><ellipse class="cls-20" cx="433.76" cy="333.04" rx="1.47" ry="3.37"/><ellipse class="cls-20" cx="437.05" cy="340.09" rx="1.47" ry="3.37"/><ellipse class="cls-20" cx="442.23" cy="334.88" rx="1.47" ry="3.37"/><ellipse class="cls-20" cx="460.84" cy="353.89" rx="1.47" ry="3.37"/><ellipse class="cls-20" cx="463.78" cy="347.97" rx="1.47" ry="3.37"/><ellipse class="cls-20" cx="458.6" cy="346.46" rx="1.47" ry="3.37"/><ellipse class="cls-20" cx="456.78" cy="355.42" rx="1.47" ry="3.37"/><ellipse class="cls-20" cx="460.07" cy="362.47" rx="1.47" ry="3.37"/><ellipse class="cls-20" cx="465.26" cy="357.26" rx="1.47" ry="3.37"/><ellipse class="cls-20" cx="440.59" cy="360.63" rx="1.47" ry="3.37"/><ellipse class="cls-20" cx="443.53" cy="354.71" rx="1.47" ry="3.37"/><ellipse class="cls-20" cx="438.34" cy="353.2" rx="1.47" ry="3.37"/><ellipse class="cls-20" cx="436.52" cy="362.16" rx="1.47" ry="3.37"/><ellipse class="cls-20" cx="439.82" cy="369.21" rx="1.47" ry="3.37"/><ellipse class="cls-20" cx="445" cy="364" rx="1.47" ry="3.37"/><ellipse class="cls-20" cx="450.65" cy="366.79" rx="1.47" ry="3.37"/><ellipse class="cls-20" cx="453.6" cy="360.88" rx="1.47" ry="3.37"/><ellipse class="cls-20" cx="448.41" cy="359.36" rx="1.47" ry="3.37"/><ellipse class="cls-20" cx="446.59" cy="368.32" rx="1.47" ry="3.37"/><ellipse class="cls-20" cx="449.88" cy="375.38" rx="1.47" ry="3.37"/><ellipse class="cls-20" cx="455.07" cy="370.16" rx="1.47" ry="3.37"/><path class="cls-3" d="M227.14,200.76l2.68-17.69L236,178l4.29-5.36h3.49l1.87-3h16.89s9.92,3,10.73,3.22,14.47,8,14.47,8l8.85,11.26,3.49,7.24s-3.76.81-2.95,1.34,7.77-1.61,6.16,0a18.21,18.21,0,0,1-4.82,3l1.07,3.22-1.88,1.34v3.22l-2.41,3.75-.8,2.68-22.25-9.34L249,192.73l-18.68,34.75Z"/><path class="cls-2" d="M202.9,750.11c.6,3.59,3,6.34,5.83,6.68,7.51,1,25.62,3.67,30.33,6.19,6,3.2,28.44-.49,29.26-4.07a7.14,7.14,0,0,0-.71-4.25,11,11,0,0,0-4.05-4.87,9.16,9.16,0,0,0-1.72-.85c-4.41-1.59-12.75-5-15.24-9,0,0-10.9-10.76-14.23-16.72a6.8,6.8,0,0,0-5.56-3.92c-2.4,0-4.94,1.69-5.52,8.49,0,0-12.34,10.33-16.49,2.09,0,0,.44,13-1.46,16.65h0A5.7,5.7,0,0,0,202.9,750.11Z"/><path class="cls-2" d="M259.66,721.79c.61,3.59,3,6.34,5.83,6.68,7.52,1,25.63,3.67,30.34,6.19,6,3.2,28.44-.49,29.26-4.07a7.12,7.12,0,0,0-.71-4.25,11,11,0,0,0-4.05-4.87,9,9,0,0,0-1.73-.85c-4.4-1.59-12.74-5-15.23-9,0,0-10.9-10.76-14.23-16.72a6.8,6.8,0,0,0-5.56-3.92c-2.4,0-4.94,1.69-5.52,8.49,0,0-12.34,10.33-16.49,2.09,0,0,.44,13-1.46,16.64h0A5.68,5.68,0,0,0,259.66,721.79Z"/><path class="cls-21" d="M203.85,735.88l4.22-8.49-8.44-6,11.46-21.12s-6.64-22.92-5.73-25.33,5.73-90.49,5.73-90.49L205.36,573s-7.54-16.89-5.73-21.11,5.59-22.32,5.59-22.32-4.34-10.86-5.87-12.67,3.29-35.59,3.29-37.4,2.43-17.5,2.43-17.5l-6-12.66h86.84l22.32-12.07,8.45,14.48,2.41,54-16.29,89.54-7.84,50.64-4.22,38.85-.61,7.83-10.85,11.26-14.48,1.21-8.45-17.85,2.73-82.89,3.31-41.49L254.52,573,237,692.6l2.41,17.9L232.81,722l3.62,9-24.13,4.87Z"/><path class="cls-9" d="M269.5,277.38s-4.16,33-4.65,30.62c-5.34-25.45-41.86-54-39.45-58.84a28,28,0,0,0,2.41-10.86l-2.65-12.07-3.38-15.82,3.62-8.91s6.11,3.93,7.1,6.5c1.43,3.68-1.07,15.82-1.07,15.82l7.24-18.5,7.24-3.82,1.21-6.28,3.62-4.69h17.15s17.83,8.56,19,11,5.43,16.92,5.43,16.92l-5.7,10.76s1.07,18.23-.27,18.77-8.31,12.6-8.31,12.6l-6.43,3.22.43.53.41-.95Z"/><polygon class="cls-9" points="237.87 355.9 235.59 342.37 280.77 340.09 316.96 341.16 318.17 378.16 298.46 401.08 237.87 355.9"/><path class="cls-22" d="M199.05,449.3,193.6,386l-4.83-39.21s-16.29-22.93-12.06-50.68,10.82-28.35,10.82-28.35,9.13-5.43,11.52-6,8.42-3.62,8.42-3.62l11.46-4.83,5.43-4.82,4.83-3.42s3.21,9.92,5.9,15.82,16.62,21.45,16.62,21.45l10.72,16.08,2.42,9.65,2.68-22.25,3.21-13.67,1.34-7.78,1.61-1.07,9.12,8.58,5.9,9.12,19.57,11.79,15.28,24.4,16.09,23.59L349.3,360,348,379.86l-20.38,6.7L308,381.47l-13.67-1.61s-4-3.22,0-2.68,18,1.87,18,1.87l-16.62-14.48-14.21-17.15,20.11-5.37,10.72,8.85L311,359.75l4.56-7.78-8.85-11-19.3,3.15-29.76-1.81-16.89,1.81-1.88,3.55s.27,5.63,8,7,13.68,3.76,14.21,4.56,10.46,2.68,11.26,3.22,11.8,8.85,12.6,8.85a44.51,44.51,0,0,1,5.1,1.34l-2.15,11v2.95l-1.07,4.83,9.65-2.95s4.29-3.22,5.63-3.22h6.17L308,396.75l2.95,37.8S269.45,472,199.05,449.3Z"/></svg>